HIERARCHY
ROOT Hips
{
	OFFSET -0.001795 -0.223333 0.028219
	CHANNELS 6 Xposition Yposition Zposition Zrotation Yrotation Xrotation 
	JOINT LeftUpLeg
	{
		OFFSET 0.069520 -0.091406 -0.006815
		CHANNELS 3 Zrotation Yrotation Xrotation
		JOINT LeftLeg
		{
			OFFSET 0.034277 -0.375199 -0.004496
			CHANNELS 3 Zrotation Yrotation Xrotation
			JOINT LeftFoot
			{
				OFFSET -0.013596 -0.397961 -0.043693
				CHANNELS 3 Zrotation Yrotation Xrotation
				JOINT LeftToe
				{
					OFFSET 0.026358 -0.055791 0.119288
					CHANNELS 3 Zrotation Yrotation Xrotation
					End Site
					{
						OFFSET 0.000000 0.000000 0.000000
					}
				}
			}
		}
	}
	JOINT RightUpLeg
	{
		OFFSET -0.067670 -0.090522 -0.004320
		CHANNELS 3 Zrotation Yrotation Xrotation
		JOINT RightLeg
		{
			OFFSET -0.038290 -0.382569 -0.008850
			CHANNELS 3 Zrotation Yrotation Xrotation
			JOINT RightFoot
			{
				OFFSET 0.015774 -0.398415 -0.042312
				CHANNELS 3 Zrotation Yrotation Xrotation
				JOINT RightToe
				{
					OFFSET -0.025372 -0.048144 0.123348
					CHANNELS 3 Zrotation Yrotation Xrotation
					End Site
					{
						OFFSET 0.000000 0.000000 0.000000
					}
				}
			}
		}
	}
	JOINT Spine
	{
		OFFSET -0.002533 0.108963 -0.026696
		CHANNELS 3 Zrotation Yrotation Xrotation
		JOINT Spine1
		{
			OFFSET 0.005487 0.135180 0.001092
			CHANNELS 3 Zrotation Yrotation Xrotation
			JOINT Spine2
			{
				OFFSET 0.001457 0.052922 0.025425
				CHANNELS 3 Zrotation Yrotation Xrotation
				JOINT Neck
				{
					OFFSET -0.002778 0.213870 -0.042857
					CHANNELS 3 Zrotation Yrotation Xrotation
					JOINT Head
					{
						OFFSET 0.005152 0.064970 0.051349
						CHANNELS 3 Zrotation Yrotation Xrotation
						End Site
						{
							OFFSET 0.000000 0.000000 0.000000
						}
					}
				}
				JOINT LeftShoulder
				{
					OFFSET 0.078845 0.121749 -0.034090
					CHANNELS 3 Zrotation Yrotation Xrotation
					JOINT LeftArm
					{
						OFFSET 0.090977 0.030469 -0.008868
						CHANNELS 3 Zrotation Yrotation Xrotation
						JOINT LeftForeArm
						{
							OFFSET 0.259612 -0.012772 -0.027456
							CHANNELS 3 Zrotation Yrotation Xrotation
							JOINT LeftHand
							{
								OFFSET 0.249234 0.008986 -0.001171
								CHANNELS 3 Zrotation Yrotation Xrotation
								End Site
								{
									OFFSET 0.000000 0.000000 0.000000
								}
							}
						}
					}
				}
				JOINT RightShoulder
				{
					OFFSET -0.081759 0.118833 -0.038615
					CHANNELS 3 Zrotation Yrotation Xrotation
					JOINT RightArm
					{
						OFFSET -0.096012 0.032551 -0.009143
						CHANNELS 3 Zrotation Yrotation Xrotation
						JOINT RightForeArm
						{
							OFFSET -0.253742 -0.013329 -0.021401
							CHANNELS 3 Zrotation Yrotation Xrotation
							JOINT RightHand
							{
								OFFSET -0.255298 0.007772 -0.005559
								CHANNELS 3 Zrotation Yrotation Xrotation
								End Site
								{
									OFFSET 0.000000 0.000000 0.000000
								}
							}
						}
					}
				}
			}
		}
	}
}
MOTION
Frames: 12
Frame Time: 0.050000
0.000000 0.966819 0.000000 -1.172442 -3.639227 3.994653 3.787799 -0.227647 -2.941411 -0.598346 0.155416 -3.042128 5.390564 14.334576 25.806743 0.000000 0.000000 0.000000 -0.755885 0.540897 -5.514448 -1.218090 0.121587 0.047319 6.168520 5.084468 14.439932 0.000000 0.000000 0.000000 5.211374 -0.195972 1.042615 -3.314311 1.506013 -3.714780 -3.216982 4.377597 10.487261 8.420124 -3.522707 -18.074070 0.000000 0.000000 0.000000 -16.399996 -12.504863 4.364958 -56.380291 -3.874216 -5.428302 -5.940460 -24.037271 2.126697 0.000000 0.000000 0.000000 18.540828 3.541774 1.069600 60.087602 4.207994 -4.385729 6.634624 28.564905 2.833238 0.000000 0.000000 0.000000 
-0.000009 0.965107 -0.002333 -1.545164 -3.918582 4.262137 4.483922 -0.213934 -2.861340 -0.852694 0.188271 -3.408808 4.862293 13.491381 24.420555 0.000000 0.000000 0.000000 -0.389484 0.644990 -6.530171 -1.326382 0.213417 1.585466 6.152136 5.911739 12.931812 0.000000 0.000000 0.000000 5.664402 -0.200333 0.905872 -3.109462 1.417283 -3.391085 -3.791300 4.970031 10.036062 9.959435 -4.222312 -18.974125 0.000000 0.000000 0.000000 -15.401926 -12.553102 4.244196 -56.042137 -3.456435 -5.555978 -6.285653 -24.826109 2.242969 0.000000 0.000000 0.000000 18.168983 2.620633 0.694292 60.635432 3.328833 -4.804842 7.345091 29.773765 3.188820 0.000000 0.000000 0.000000 
0.000232 0.965205 -0.004282 -1.567599 -4.120968 4.247345 4.591305 -0.247067 -3.595417 -0.879227 0.155228 -2.078511 4.622582 13.098819 23.925568 0.000000 0.000000 0.000000 -0.207432 0.643820 -6.489202 -1.514628 0.236929 1.637830 5.975885 5.893065 12.339162 0.000000 0.000000 0.000000 5.612440 -0.181329 0.724510 -2.724618 1.238960 -3.971023 -3.862439 5.435235 11.157635 9.807876 -4.222186 -18.518237 0.000000 0.000000 0.000000 -15.238443 -12.364654 4.116600 -55.822473 -4.043213 -5.373040 -6.312605 -24.355586 2.204030 0.000000 0.000000 0.000000 17.812367 3.254230 1.157724 61.187741 3.358531 -4.940181 5.392565 28.760661 2.626346 0.000000 0.000000 0.000000 
0.000395 0.966295 -0.005700 -1.643161 -4.114063 4.703959 4.963131 -0.264284 -4.027655 -1.217803 0.200696 -2.602265 4.353918 12.877231 25.046034 0.000000 0.000000 0.000000 -0.209435 0.730413 -7.338432 -1.587514 0.253660 1.791827 6.411971 6.142529 13.337795 0.000000 0.000000 0.000000 5.628109 -0.086272 -0.396469 -2.928880 1.340108 -3.114881 -3.136249 4.859963 11.016798 9.844482 -4.242614 -18.881392 0.000000 0.000000 0.000000 -14.044528 -12.459465 4.306453 -56.876408 -3.554021 -5.717715 -5.630994 -25.726964 2.209303 0.000000 0.000000 0.000000 16.542956 3.921128 1.357960 61.865129 3.617812 -4.784639 3.947778 28.397252 2.202369 0.000000 0.000000 0.000000 
0.000716 0.967142 -0.006612 -1.750306 -4.231014 4.237716 4.935006 -0.248605 -3.828807 -1.034059 0.170480 -2.070848 4.398381 12.918402 25.040089 0.000000 0.000000 0.000000 -0.156644 0.707104 -7.097887 -1.746200 0.286550 2.046666 6.906862 6.788136 13.814551 0.000000 0.000000 0.000000 5.654151 -0.081683 -0.351078 -2.864473 1.319431 -2.657805 -2.948171 4.999345 11.250409 9.883462 -4.338748 -18.526891 0.000000 0.000000 0.000000 -13.371425 -12.360103 4.248741 -56.511213 -3.745279 -5.630466 -5.805406 -27.306065 2.391191 0.000000 0.000000 0.000000 15.918686 3.706164 1.266099 62.246472 3.333626 -4.966801 4.062844 28.316082 2.229373 0.000000 0.000000 0.000000 
0.001114 0.967736 -0.006944 -1.912585 -4.434497 4.144980 4.824593 -0.256088 -3.997475 -0.878155 0.154844 -2.052831 5.400868 14.272882 26.477103 0.000000 0.000000 0.000000 -0.072967 0.721258 -7.216326 -1.853881 0.311301 2.259523 7.393694 7.393932 14.294531 0.000000 0.000000 0.000000 5.604577 -0.079934 -0.340154 -2.871277 1.319054 -2.786295 -2.251578 5.238045 11.747849 9.768457 -4.226179 -18.842427 0.000000 0.000000 0.000000 -12.808183 -12.163610 4.164734 -56.364174 -3.409590 -5.831174 -5.778174 -29.235271 2.567148 0.000000 0.000000 0.000000 15.351453 3.567860 1.214469 62.121717 3.501524 -4.907983 3.710973 28.334078 2.157963 0.000000 0.000000 0.000000 
0.001677 0.967514 -0.007046 -1.994390 -4.291418 3.976168 4.833833 -0.252136 -3.934156 -0.914159 0.160136 -2.124895 5.787152 14.806593 26.957663 0.000000 0.000000 0.000000 -0.225618 0.729928 -7.333008 -1.823300 0.335939 2.724567 7.814491 8.133615 14.452203 0.000000 0.000000 0.000000 5.904488 -0.072856 -0.427250 -3.003908 1.378473 -2.876418 -2.110670 5.429331 11.739379 9.838735 -4.223316 -18.929665 0.000000 0.000000 0.000000 -11.898438 -11.204650 3.672183 -55.981809 -2.335362 -6.304609 -6.855031 -31.700335 3.075667 0.000000 0.000000 0.000000 14.602571 3.127925 1.049150 62.308511 3.271083 -5.012760 4.432968 29.348709 2.452310 0.000000 0.000000 0.000000 
0.002210 0.967343 -0.007197 -1.984986 -4.164456 3.833617 4.972021 -0.241873 -3.788724 -1.168977 0.184382 -2.095379 5.560068 14.531076 26.652157 0.000000 0.000000 0.000000 -0.372263 0.727080 -7.340872 -1.558552 0.309890 2.827459 7.729398 7.806215 14.741353 0.000000 0.000000 0.000000 6.345028 -0.056699 -0.625279 -3.141208 1.433319 -3.312931 -2.090725 5.324585 11.980774 10.211364 -4.484955 -18.852101 0.000000 0.000000 0.000000 -11.417059 -11.024129 3.609398 -54.938672 -1.222657 -6.707467 -5.612502 -35.993166 3.119045 0.000000 0.000000 0.000000 14.405488 2.981569 0.976436 62.431973 2.815784 -5.289857 5.290740 31.699454 2.939726 0.000000 0.000000 0.000000 
0.002565 0.967472 -0.007563 -2.187046 -3.597881 4.015012 4.910194 -0.255348 -3.880432 -0.891803 0.167231 -2.516485 5.813409 14.919734 26.576147 0.000000 0.000000 0.000000 -0.101903 0.721577 -7.217023 -1.732100 0.302615 2.323581 7.651352 7.611130 14.966649 0.000000 0.000000 0.000000 6.930383 -0.004698 -1.242249 -2.848791 1.304627 -3.593711 -2.287378 5.823289 12.193422 10.407189 -4.486853 -18.995287 0.000000 0.000000 0.000000 -10.037391 -9.187662 2.694528 -52.525578 -1.183625 -6.446725 -5.071143 -43.243400 3.448739 0.000000 0.000000 0.000000 14.115283 2.281119 0.797900 61.585246 2.251188 -5.518890 7.969261 34.972211 4.222614 0.000000 0.000000 0.000000 
0.002528 0.968431 -0.008271 -2.055332 -2.715048 3.620961 4.744748 -0.231150 -3.227443 -0.509232 0.161245 -3.519129 4.830231 13.970175 27.463268 0.000000 0.000000 0.000000 0.049416 0.666154 -6.637500 -1.973921 0.312390 1.962328 7.110241 6.463827 15.415522 0.000000 0.000000 0.000000 6.713363 0.058700 -1.802371 -2.306569 1.078923 -3.215770 -2.426414 7.278939 11.822366 11.467963 -5.274701 -17.255408 0.000000 0.000000 0.000000 -7.608688 -9.290138 2.577424 -45.817263 -4.331349 -4.371107 1.615750 -54.042264 0.412241 0.000000 0.000000 0.000000 13.588722 1.485218 0.761743 60.366423 1.000968 -5.947590 12.281893 39.008575 6.566036 0.000000 0.000000 0.000000 
0.002095 0.969494 -0.009124 -1.930348 -1.758499 3.491926 4.464315 -0.254918 -3.469214 -0.301460 0.130549 -3.106069 4.545306 13.740245 27.003806 0.000000 0.000000 0.000000 0.287438 0.607057 -6.007364 -2.054811 0.300865 1.561896 5.982563 4.870455 14.788110 0.000000 0.000000 0.000000 6.317759 0.110671 -2.346708 -1.800668 0.864804 -3.408708 -2.308309 8.474014 11.555495 11.310455 -5.497238 -14.971029 0.000000 0.000000 0.000000 -6.267613 -9.537466 2.573347 -35.597585 -9.215870 -1.935178 35.378039 -63.905248 -21.877233 0.000000 0.000000 0.000000 14.258925 2.020385 1.373642 58.185545 1.227639 -5.696912 11.888926 42.297711 7.327842 0.000000 0.000000 0.000000 
0.001509 0.970241 -0.010039 -1.933223 -0.711711 3.329645 4.363469 -0.216381 -2.567895 0.199551 0.120927 -3.998468 3.073250 11.850690 24.989384 0.000000 0.000000 0.000000 1.225238 0.574043 -5.520959 -2.786909 0.322782 0.520981 4.658808 1.983899 16.004855 0.000000 0.000000 0.000000 5.225877 0.198999 -3.405154 -0.350019 0.216118 -2.342650 -2.159036 8.844236 10.325811 10.809600 -5.510061 -12.905882 0.000000 0.000000 0.000000 -1.718869 -9.975341 3.024470 -25.928071 -16.509251 -0.134561 79.034736 -50.317096 -43.053527 0.000000 0.000000 0.000000 14.128518 3.190971 2.131269 56.288953 2.701319 -4.804004 11.553922 46.471140 8.230826 0.000000 0.000000 0.000000 
